<svg width="70" height="50" viewBox="0 0 70 50" fill="none" xmlns="http://www.w3.org/2000/svg">
<path d="M11.306 45.4678L11.3127 45.4721L11.3194 45.4762C14.2944 47.3137 17.6512 48.22 21.3477 48.22C25.0802 48.22 28.442 47.3154 31.3844 45.471L31.3893 45.4678C34.374 43.5805 36.692 40.8733 38.3592 37.4108C40.0402 33.9193 40.8477 29.7645 40.8477 25C40.8477 20.2356 40.0402 16.0808 38.3592 12.5893C36.693 9.12878 34.3748 6.43918 31.387 4.59068C28.4455 2.7059 25.0826 1.78003 21.3477 1.78003C17.647 1.78003 14.2876 2.7086 11.3127 4.58801C8.32278 6.43659 6.00313 9.12712 4.33615 12.5893C2.65507 16.0808 1.84766 20.2356 1.84766 25C1.84766 29.7645 2.65507 33.9193 4.33615 37.4108C6.00329 40.8733 8.32137 43.5805 11.306 45.4678ZM24.7139 35.9154L24.7044 35.9224L24.695 35.9296C23.7795 36.6315 22.6873 37 21.3477 37C20.0613 37 18.9604 36.6387 17.9911 35.9226C17.0999 35.2356 16.281 34.0658 15.6236 32.2446C15.0184 30.4582 14.6877 28.0618 14.6877 25C14.6877 21.9383 15.0184 19.5419 15.6236 17.7554C16.281 15.9343 17.0998 14.7645 17.9911 14.0775C18.9604 13.3614 20.0613 13 21.3477 13C22.6873 13 23.7795 13.3685 24.695 14.0704L24.7044 14.0776L24.7139 14.0847C25.634 14.7674 26.4504 15.9278 27.0675 17.7429L27.0718 17.7555L27.0763 17.7681C27.7165 19.5463 28.0677 21.9372 28.0677 25C28.0677 28.0629 27.7165 30.4537 27.0763 32.232L27.0718 32.2445L27.0675 32.2572C26.4504 34.0722 25.634 35.2327 24.7139 35.9154ZM54.8159 46V47.5H56.3159H66.0359H67.5359V46V4.00003V2.50003H66.0359H47.9159H46.4159V4.00003V11.8V13.3H47.9159H54.8159V46Z" stroke="#1F4051" stroke-width="3"/>
</svg>
