<svg width="85" height="50" viewBox="0 0 85 50" fill="none" xmlns="http://www.w3.org/2000/svg">
<path d="M11.3587 45.4678L11.3654 45.4721L11.3722 45.4762C14.3471 47.3137 17.704 48.22 21.4004 48.22C25.133 48.22 28.4947 47.3154 31.4371 45.471L31.4421 45.4678C34.4267 43.5805 36.7448 40.8733 38.4119 37.4108C40.093 33.9193 40.9004 29.7645 40.9004 25C40.9004 20.2356 40.093 16.0808 38.4119 12.5893C36.7457 9.12878 34.4275 6.43918 31.4397 4.59068C28.4982 2.7059 25.1353 1.78003 21.4004 1.78003C17.6998 1.78003 14.3403 2.7086 11.3654 4.58801C8.37551 6.43659 6.05587 9.12712 4.38889 12.5893C2.7078 16.0808 1.90039 20.2356 1.90039 25C1.90039 29.7645 2.7078 33.9193 4.38889 37.4108C6.05602 40.8733 8.3741 43.5805 11.3587 45.4678ZM24.7666 35.9154L24.7571 35.9224L24.7477 35.9296C23.8322 36.6315 22.7401 37 21.4004 37C20.1141 37 19.0131 36.6387 18.0439 35.9226C17.1526 35.2356 16.3337 34.0658 15.6763 32.2446C15.0712 30.4582 14.7404 28.0618 14.7404 25C14.7404 21.9383 15.0712 19.5419 15.6763 17.7554C16.3337 15.9343 17.1526 14.7645 18.0438 14.0775C19.0131 13.3614 20.1141 13 21.4004 13C22.7401 13 23.8322 13.3685 24.7477 14.0704L24.7571 14.0776L24.7666 14.0847C25.6868 14.7674 26.5031 15.9278 27.1202 17.7429L27.1245 17.7555L27.1291 17.7681C27.7692 19.5463 28.1204 21.9372 28.1204 25C28.1204 28.0629 27.7692 30.4537 27.1291 32.232L27.1245 32.2445L27.1202 32.2572C26.5031 34.0722 25.6868 35.2327 24.7666 35.9154ZM48.0287 46V47.5H49.5287H81.2687H82.7687V46V38.08V36.58H81.2687H66.9668L73.8953 30.0536C73.8955 30.0535 73.8957 30.0533 73.8958 30.0532C75.8957 28.1757 77.4589 26.4342 78.5438 24.8313C79.6501 23.2548 80.4258 21.6926 80.8026 20.1492C81.192 18.6731 81.3887 17.1891 81.3887 15.7C81.3887 12.8729 80.6558 10.3601 79.1339 8.23454C77.6731 6.13865 75.6201 4.55741 73.0482 3.46499C70.4999 2.32543 67.5673 1.78003 64.2887 1.78003C60.3408 1.78003 56.7899 2.51576 53.6729 4.03098C50.5801 5.53441 48.1244 7.60224 46.3606 10.248L45.5153 11.5159L46.7965 12.3411L53.8765 16.9011L55.0721 17.6711L55.9047 16.5183C56.8056 15.2708 57.8671 14.3887 59.0881 13.8262C60.4026 13.2393 61.8303 12.94 63.3887 12.94C65.4135 12.94 66.6731 13.3684 67.4166 13.9791L67.439 13.9975L67.4621 14.0151C68.1875 14.5653 68.6087 15.3673 68.6087 16.66C68.6087 17.1146 68.523 17.6602 68.3183 18.3083L68.3073 18.3431L68.2981 18.3783C68.1516 18.9348 67.8366 19.6259 67.2923 20.4606C66.7906 21.2299 65.9539 22.1716 64.7214 23.2885L64.71 23.2989L64.6987 23.3095L48.4987 38.6095L48.0287 39.0535V39.7V46Z" stroke="#1F4051" stroke-width="3"/>
</svg>
