<svg width="84" height="50" viewBox="0 0 84 50" fill="none" xmlns="http://www.w3.org/2000/svg">
<path d="M10.9759 45.4678L10.9826 45.4721L10.9893 45.4762C13.9643 47.3137 17.3212 48.22 21.0176 48.22C24.7502 48.22 28.1119 47.3154 31.0543 45.471L31.0593 45.4678C34.0439 43.5805 36.3619 40.8733 38.0291 37.4108C39.7102 33.9193 40.5176 29.7645 40.5176 25C40.5176 20.2356 39.7102 16.0808 38.0291 12.5893C36.3629 9.12878 34.0447 6.43918 31.0569 4.59068C28.1154 2.7059 24.7525 1.78003 21.0176 1.78003C17.317 1.78003 13.9575 2.7086 10.9826 4.58801C7.9927 6.43659 5.67306 9.12712 4.00608 12.5893C2.32499 16.0808 1.51758 20.2356 1.51758 25C1.51758 29.7645 2.32499 33.9193 4.00608 37.4108C5.67321 40.8733 7.99129 43.5805 10.9759 45.4678ZM24.3838 35.9154L24.3743 35.9224L24.3649 35.9296C23.4494 36.6315 22.3573 37 21.0176 37C19.7313 37 18.6303 36.6387 17.661 35.9226C16.7698 35.2356 15.9509 34.0658 15.2935 32.2446C14.6884 30.4582 14.3576 28.0618 14.3576 25C14.3576 21.9383 14.6884 19.5419 15.2935 17.7554C15.9509 15.9343 16.7698 14.7645 17.661 14.0775C18.6303 13.3614 19.7313 13 21.0176 13C22.3573 13 23.4494 13.3685 24.3649 14.0704L24.3743 14.0776L24.3838 14.0847C25.3039 14.7674 26.1203 15.9278 26.7374 17.7429L26.7417 17.7555L26.7462 17.7681C27.3864 19.5463 27.7376 21.9372 27.7376 25C27.7376 28.0629 27.3864 30.4537 26.7462 32.232L26.7417 32.2445L26.7374 32.2572C26.1203 34.0722 25.3039 35.2327 24.3838 35.9154ZM53.6728 47.0253L53.6822 47.0279L53.6916 47.0304C56.6939 47.8227 59.7225 48.22 62.7743 48.22C66.9201 48.22 70.4509 47.5588 73.2851 46.1417C76.047 44.7607 78.1825 42.9247 79.5961 40.5992L79.6027 40.5881C80.9774 38.2822 81.6743 35.7978 81.6743 33.16C81.6743 29.1062 80.1815 25.7095 77.2045 23.0933C75.6671 21.7422 73.7928 20.7676 71.6154 20.1366L71.9324 19.7755L79.3816 11.2896L79.7543 10.865V10.3V4.00003V2.50003H78.2543H48.8543H47.3543V4.00003V11.8V13.3H48.8543H63.3677L56.9725 20.5042L56.5943 20.9303V21.5V28V29.5H58.0943H62.5343C65.1958 29.5 66.7941 29.9567 67.6405 30.5847C68.4832 31.2099 68.8943 32.0147 68.8943 33.16C68.8943 34.3393 68.4432 35.1991 67.446 35.8829C66.383 36.6118 64.7982 37.06 62.5343 37.06C60.5346 37.06 58.549 36.7457 56.5724 36.1117C54.5848 35.4742 52.8711 34.6214 51.4147 33.5656L49.9926 32.5346L49.197 34.1006L45.417 41.5406L44.8349 42.6864L45.8778 43.4373C48.0484 45.0001 50.6575 46.1877 53.6728 47.0253Z" stroke="#1F4051" stroke-width="3"/>
</svg>
