<svg width="45" height="47" viewBox="0 0 45 47" fill="none" xmlns="http://www.w3.org/2000/svg">
<path d="M15.5003 39.7269L15.2867 39.5357H15H5C3.84768 39.5357 2.757 39.1252 1.96472 38.4159C1.17516 37.709 0.75 36.7693 0.75 35.8095V4.47619C0.75 3.51641 1.17516 2.57668 1.96472 1.86984C2.757 1.16056 3.84768 0.75 5 0.75H40C42.416 0.75 44.25 2.5044 44.25 4.47619V35.8095C44.25 37.7813 42.416 39.5357 40 39.5357H30H29.7133L29.4997 39.7269L22.5 45.9934L15.5003 39.7269ZM25 36.5595H25.75V35.8095V31.3333V30.5833H25H20H19.25V31.3333V35.8095V36.5595H20H25ZM28.4291 21.0787L28.4313 21.0766L30.6783 19.0203C32.2429 17.6182 33.25 15.6325 33.25 13.4286C33.25 7.99227 28.359 3.72619 22.5 3.72619C16.641 3.72619 11.75 7.99227 11.75 13.4286V14.1786H12.5H17.5H18.25V13.4286C18.25 11.4568 20.084 9.70238 22.5 9.70238C24.916 9.70238 26.75 11.4568 26.75 13.4286C26.75 14.4261 26.3067 15.3442 25.5324 16.0187L25.5263 16.0241L25.5203 16.0295L22.4209 18.8489C20.4847 20.6064 19.25 23.0386 19.25 25.7381V26.8571V27.6071H20H25H25.75V26.8571C25.75 25.2658 26.0158 24.2187 26.4508 23.394C26.8924 22.557 27.5396 21.886 28.4291 21.0787Z" stroke="white" stroke-width="1.5"/>
</svg>
