<svg width="261" height="54" viewBox="0 0 261 54" fill="none" xmlns="http://www.w3.org/2000/svg">
<path d="M3.7955 48.2885V6.23077H12.8478V22.3269L25.5817 6.23077H37.5948L21.8435 26.4808L38.3346 47.4231V48.2885H26.6634L15.2014 34.2692L12.8478 37.5577V48.2885H3.7955Z" fill="#1C76A5"/>
<path d="M0 0H2.2773V54H0V0Z" fill="#1C76A5"/>
<path d="M38.3346 0H40.6119V54H38.3346V0Z" fill="#1C76A5"/>
<path d="M2.2773 0H38.3346V1.73077H2.2773V0Z" fill="#1C76A5"/>
<path d="M2.2773 52.2692H38.3346V54H2.2773V52.2692Z" fill="#1C76A5"/>
<path d="M15.5422 45.5192V3.46154H25.7331V19.5577L38.4671 3.46154H50.4802L34.7288 23.7115L52.3779 45.5192H39.5488L28.0867 31.5L25.7331 34.7885V45.5192H15.5422Z" fill="#06887C"/>
<path d="M61.8814 45.9C60.6568 45.9 59.6269 45.6335 58.7919 45.1004C57.9569 44.5673 57.3306 43.8946 56.9131 43.0823C56.4956 42.2446 56.2869 41.3942 56.2869 40.5312C56.2869 39.1604 56.5791 38.0054 57.1636 37.0662C57.776 36.1269 58.5692 35.34 59.5434 34.7054C60.5176 34.0708 61.5892 33.5377 62.7582 33.1062C63.9272 32.6492 65.0823 32.2431 66.2235 31.8877V29.6792C66.2235 29.2985 66.1818 28.9685 66.0983 28.6892C66.0147 28.3846 65.8756 28.1562 65.6807 28.0039C65.4859 27.8262 65.1937 27.7373 64.804 27.7373C64.4143 27.7373 64.1081 27.8135 63.8855 27.9658C63.6906 28.1181 63.5515 28.3338 63.468 28.6131C63.3845 28.8669 63.3288 29.1588 63.301 29.4888L63.134 31.0881L56.7879 30.8596C56.9271 28.2196 57.6925 26.2777 59.0842 25.0338C60.5037 23.7646 62.619 23.13 65.4302 23.13C67.8796 23.13 69.7027 23.7519 70.8996 24.9958C72.1242 26.2142 72.7366 27.8008 72.7366 29.7554V40.0362C72.7366 40.95 72.7505 41.7496 72.7783 42.435C72.834 43.1204 72.8897 43.7169 72.9453 44.2246C73.0288 44.7323 73.0984 45.1638 73.1541 45.5192H67.0585C66.975 44.9354 66.8776 44.3008 66.7663 43.6154C66.6549 42.93 66.5714 42.5238 66.5158 42.3969C66.2374 43.3108 65.7086 44.1231 64.9292 44.8339C64.1777 45.5446 63.1618 45.9 61.8814 45.9ZM64.303 41.7115C64.5813 41.7115 64.8318 41.6608 65.0545 41.5592C65.305 41.4577 65.5277 41.3181 65.7225 41.1404C65.9173 40.9627 66.0843 40.785 66.2235 40.6073V34.5912C65.6668 34.8958 65.1519 35.2131 64.6787 35.5431C64.2056 35.8477 63.802 36.1904 63.468 36.5712C63.134 36.9519 62.8695 37.3708 62.6747 37.8277C62.5077 38.2592 62.4242 38.7542 62.4242 39.3127C62.4242 40.0489 62.5912 40.6327 62.9252 41.0642C63.2592 41.4958 63.7185 41.7115 64.303 41.7115Z" fill="#1F4051"/>
<path d="M88.7933 45.9C87.0397 45.9 85.5367 45.6081 84.2842 45.0242C83.0595 44.4404 82.1132 43.6027 81.4452 42.5112C80.7771 41.4196 80.4431 40.0996 80.4431 38.5512V30.4789C80.4431 28.905 80.7771 27.5723 81.4452 26.4808C82.1132 25.3892 83.0595 24.5642 84.2842 24.0058C85.5367 23.4219 87.0397 23.13 88.7933 23.13C90.5189 23.13 91.9802 23.3712 93.1771 23.8535C94.4017 24.3358 95.3342 25.0719 95.9743 26.0619C96.6145 27.0265 96.9346 28.2577 96.9346 29.7554V32.0781H90.3798V29.565C90.3798 28.9812 90.3102 28.5369 90.171 28.2323C90.0597 27.9023 89.8788 27.6739 89.6283 27.5469C89.4056 27.42 89.1273 27.3565 88.7933 27.3565C88.4592 27.3565 88.1809 27.4454 87.9582 27.6231C87.7356 27.7754 87.5686 28.0419 87.4572 28.4227C87.3459 28.7781 87.2902 29.2858 87.2902 29.9458V39.0842C87.2902 40.0742 87.4155 40.7469 87.666 41.1023C87.9443 41.4577 88.334 41.6354 88.835 41.6354C89.1968 41.6354 89.4891 41.5719 89.7118 41.445C89.9344 41.2927 90.1014 41.0642 90.2128 40.7596C90.3241 40.4296 90.3798 39.9981 90.3798 39.465V36.5331H96.9346V39.1985C96.9346 40.6708 96.6006 41.9146 95.9326 42.93C95.2924 43.92 94.36 44.6688 93.1353 45.1765C91.9385 45.6589 90.4911 45.9 88.7933 45.9Z" fill="#1F4051"/>
<path d="M104.649 45.5192V23.5108H111.454V32.1923H112.456L116.13 23.5108H123.437L118.677 33.9058L123.562 45.5192H116.381L112.456 35.7715H111.454V45.5192H104.649Z" fill="#1F4051"/>
<path d="M135.075 45.9C133.851 45.9 132.821 45.6335 131.986 45.1004C131.151 44.5673 130.525 43.8946 130.107 43.0823C129.69 42.2446 129.481 41.3942 129.481 40.5312C129.481 39.1604 129.773 38.0054 130.358 37.0662C130.97 36.1269 131.763 35.34 132.737 34.7054C133.711 34.0708 134.783 33.5377 135.952 33.1062C137.121 32.6492 138.276 32.2431 139.417 31.8877V29.6792C139.417 29.2985 139.376 28.9685 139.292 28.6892C139.209 28.3846 139.069 28.1562 138.875 28.0039C138.68 27.8262 138.388 27.7373 137.998 27.7373C137.608 27.7373 137.302 27.8135 137.079 27.9658C136.885 28.1181 136.745 28.3338 136.662 28.6131C136.578 28.8669 136.523 29.1588 136.495 29.4888L136.328 31.0881L129.982 30.8596C130.121 28.2196 130.886 26.2777 132.278 25.0338C133.698 23.7646 135.813 23.13 138.624 23.13C141.074 23.13 142.897 23.7519 144.093 24.9958C145.318 26.2142 145.93 27.8008 145.93 29.7554V40.0362C145.93 40.95 145.944 41.7496 145.972 42.435C146.028 43.1204 146.084 43.7169 146.139 44.2246C146.223 44.7323 146.292 45.1638 146.348 45.5192H140.252C140.169 44.9354 140.071 44.3008 139.96 43.6154C139.849 42.93 139.765 42.5238 139.71 42.3969C139.431 43.3108 138.902 44.1231 138.123 44.8339C137.372 45.5446 136.356 45.9 135.075 45.9ZM137.497 41.7115C137.775 41.7115 138.026 41.6608 138.248 41.5592C138.499 41.4577 138.722 41.3181 138.916 41.1404C139.111 40.9627 139.278 40.785 139.417 40.6073V34.5912C138.861 34.8958 138.346 35.2131 137.873 35.5431C137.399 35.8477 136.996 36.1904 136.662 36.5712C136.328 36.9519 136.063 37.3708 135.869 37.8277C135.702 38.2592 135.618 38.7542 135.618 39.3127C135.618 40.0489 135.785 40.6327 136.119 41.0642C136.453 41.4958 136.912 41.7115 137.497 41.7115Z" fill="#1F4051"/>
<path d="M153.345 51.4973V41.7496C154.263 41.3689 155.057 40.8738 155.725 40.2646C156.393 39.63 156.963 38.8685 157.436 37.98C157.91 37.0662 158.285 36.0127 158.564 34.8196C158.842 33.6012 159.037 32.2177 159.148 30.6692L159.858 23.5108H173.135V41.7115H176.642V51.4973H171.757L171.298 45.5192H158.689L158.313 51.4973H153.345ZM160.693 41.7115H166.914V27.2042H164.91L164.409 32.1542C164.325 33.5504 164.172 34.7688 163.949 35.8096C163.727 36.825 163.448 37.7135 163.114 38.475C162.808 39.2112 162.446 39.8458 162.029 40.3788C161.611 40.8865 161.166 41.3308 160.693 41.7115Z" fill="#1F4051"/>
<path d="M186.159 45.5192V25.4146H181.999V23.0885H193.629V25.4146H189.59V45.5192H186.159Z" fill="#06887C"/>
<path d="M197.139 45.5192V23.0885H206.673V25.4146H200.57V32.8362H205.519V35.0515H200.57V43.2762H206.734V45.5192H197.139Z" fill="#06887C"/>
<path d="M211.022 45.5192L216.153 33.7777L211.113 23.0885H214.301L218.036 31.0085L221.437 23.0885H224.625L219.463 34.0269L224.868 45.5192H221.68L217.671 37.0731L214.21 45.5192H211.022Z" fill="#06887C"/>
<path d="M229.466 45.5192V23.0885H232.897V32.7808H239.212V23.0885H242.644V45.5192H239.212V35.0238H232.897V45.5192H229.466Z" fill="#06887C"/>
<path d="M254.29 45.7685C252.63 45.7685 251.304 45.4731 250.312 44.8823C249.32 44.2915 248.611 43.4515 248.186 42.3623C247.761 41.2546 247.549 39.9623 247.549 38.4854V29.9838C247.549 28.5069 247.761 27.2423 248.186 26.19C248.632 25.1192 249.34 24.3069 250.312 23.7531C251.304 23.1808 252.63 22.8946 254.29 22.8946C255.949 22.8946 257.265 23.1808 258.237 23.7531C259.209 24.3254 259.907 25.1377 260.332 26.19C260.777 27.2423 261 28.5069 261 29.9838V38.5131C261 39.9715 260.777 41.2454 260.332 42.3346C259.907 43.4239 259.209 44.2731 258.237 44.8823C257.265 45.4731 255.949 45.7685 254.29 45.7685ZM254.29 43.3038C255.2 43.3038 255.889 43.1377 256.354 42.8054C256.82 42.4546 257.134 41.9746 257.296 41.3654C257.458 40.7377 257.539 40.0085 257.539 39.1777V29.3469C257.539 28.5162 257.458 27.8054 257.296 27.2146C257.134 26.6054 256.82 26.1439 256.354 25.83C255.889 25.4977 255.2 25.3315 254.29 25.3315C253.379 25.3315 252.68 25.4977 252.194 25.83C251.729 26.1439 251.415 26.6054 251.253 27.2146C251.091 27.8054 251.01 28.5162 251.01 29.3469V39.1777C251.01 40.0085 251.091 40.7377 251.253 41.3654C251.415 41.9746 251.729 42.4546 252.194 42.8054C252.68 43.1377 253.379 43.3038 254.29 43.3038Z" fill="#06887C"/>
<path d="M5.69325 3.80769C5.69325 4.38122 5.18346 4.84615 4.5546 4.84615C3.92574 4.84615 3.41595 4.38122 3.41595 3.80769C3.41595 3.23417 3.92574 2.76923 4.5546 2.76923C5.18346 2.76923 5.69325 3.23417 5.69325 3.80769Z" fill="#1F4051"/>
<path d="M37.1959 3.80769C37.1959 4.38122 36.6861 4.84615 36.0573 4.84615C35.4284 4.84615 34.9186 4.38122 34.9186 3.80769C34.9186 3.23417 35.4284 2.76923 36.0573 2.76923C36.6861 2.76923 37.1959 3.23417 37.1959 3.80769Z" fill="#1F4051"/>
<path d="M5.69325 50.3654C5.69325 50.9389 5.18346 51.4038 4.5546 51.4038C3.92574 51.4038 3.41595 50.9389 3.41595 50.3654C3.41595 49.7919 3.92574 49.3269 4.5546 49.3269C5.18346 49.3269 5.69325 49.7919 5.69325 50.3654Z" fill="#1F4051"/>
<path d="M37.1959 50.3654C37.1959 50.9389 36.6861 51.4038 36.0573 51.4038C35.4284 51.4038 34.9186 50.9389 34.9186 50.3654C34.9186 49.7919 35.4284 49.3269 36.0573 49.3269C36.6861 49.3269 37.1959 49.7919 37.1959 50.3654Z" fill="#1F4051"/>
</svg>
