<svg width="31" height="47" viewBox="0 0 31 47" fill="none" xmlns="http://www.w3.org/2000/svg">
<path d="M13.0149 4.77054L14.5365 9.05119L14.8903 10.0466L13.8962 9.68916C12.4777 9.17915 11.1563 9.35856 9.87955 10.2466C8.60732 11.1316 7.93926 12.3623 7.86804 13.9905L7.85402 14.311L7.55692 14.4318C5.43592 15.2946 3.73277 16.6682 2.43792 18.5607C1.14503 20.452 0.5 22.5448 0.5 24.8523C0.5 27.9695 1.56286 30.6091 3.69412 32.7999C5.82491 34.9903 8.38633 36.0776 11.4064 36.0776H12.6738H13.1738V36.5776V44.3944V44.8944H12.6738H0.5V46.5H30.5V44.8944H15.7915H15.2915V44.3944V36.5776V36.0776H15.7915H29.917V34.4719H11.4064C8.80553 34.4719 6.58109 33.5312 4.76197 31.663L4.76146 31.6625C2.94489 29.7915 2.03475 27.5116 2.03475 24.8523M13.0149 4.77054L2.53475 24.8523M13.0149 4.77054L14.9648 4.03207L15.426 3.85741L15.2577 3.39387L14.539 1.41372L16.5619 0.649461L17.2505 2.63887L17.4171 3.12037L17.8954 2.94466L19.6343 2.30582L25.5912 19.0217L23.821 19.7521L23.3801 19.934L23.541 20.383L24.2623 22.3956L22.2375 23.1606M13.0149 4.77054L22.2375 23.1606M2.03475 24.8523H2.53475M2.03475 24.8523C2.03475 24.8525 2.03475 24.8526 2.03475 24.8528L2.53475 24.8523M2.03475 24.8523C2.03306 22.9366 2.53161 21.1935 3.53376 19.6363C4.53365 18.0826 5.87919 16.9182 7.56146 16.1507L8.02177 15.9406L8.22633 16.4034C8.62013 17.2943 9.20432 18.0179 9.98358 18.5821C10.7518 19.1383 11.608 19.4235 12.5662 19.4408L12.5686 19.4409C13.3879 19.4597 14.1505 19.2726 14.8654 18.8777C15.5898 18.4776 16.1787 17.9413 16.6376 17.2653L17.2036 16.4317L17.5251 17.3866L18.9705 21.6787M2.53475 24.8523C2.53306 23.0284 3.00621 21.3799 3.95421 19.9069C4.81138 18.575 5.9331 17.5477 7.31938 16.825C7.31681 16.8193 7.31425 16.8135 7.31169 16.8077L7.76901 16.6056L7.83139 16.7423C8.25934 17.6514 8.879 18.3996 9.69035 18.9871C10.542 19.6037 11.4976 19.9216 12.5572 19.9407C13.4646 19.9616 14.3146 19.7531 15.1071 19.3154C15.7197 18.977 16.246 18.5479 16.6859 18.0279L16.5774 17.7058L17.0513 17.5462L17.4649 17.827C17.395 17.9301 17.3224 18.0305 17.2473 18.1282L18.5084 21.8732L18.9705 21.6787M18.9705 21.6787L20.8825 20.8739L21.3744 20.6668L21.5489 21.1712L22.2375 23.1606M18.9705 21.6787L19.1305 22.1538L20.6146 21.5291L20.604 21.4983L22.2375 23.1606M19.6021 19.44L19.7776 19.9292L20.2597 19.7348L23.5168 18.4216L23.9602 18.2428L23.8015 17.7918L19.102 4.44329L18.9351 3.96914L18.4619 4.13859L15.078 5.3502L14.6069 5.51886L14.7759 5.9898L19.6021 19.44ZM12.6702 18.1374H12.6712C13.6838 18.1374 14.5549 17.7786 15.2516 17.0646C15.9487 16.3521 16.294 15.4631 16.294 14.4325C16.294 13.4023 15.9499 12.5129 15.2551 11.7987C14.5601 11.0842 13.6898 10.7244 12.6773 10.7224C11.6642 10.7204 10.7927 11.0794 10.0959 11.7951C9.3988 12.5076 9.05348 13.3966 9.05348 14.4273C9.05348 15.4571 9.39648 16.3463 10.0894 17.0605C10.7834 17.776 11.6568 18.1354 12.6702 18.1374Z" stroke="white"/>
</svg>
