<svg width="40" height="40" viewBox="0 0 40 40" fill="none" xmlns="http://www.w3.org/2000/svg">
<path d="M27.5148 29.398L27.5167 29.3898L27.5184 29.3816L30.7997 13.9129L30.7997 13.9129L30.8011 13.9058C30.958 13.1391 30.9458 12.2268 30.2849 11.5829C29.9942 11.2996 29.6312 11.1134 29.2167 11.0571C28.8176 11.0029 28.4322 11.0768 28.0864 11.2065L28.0864 11.2065L28.0779 11.2098L8.79713 18.6409C8.79631 18.6412 8.79549 18.6415 8.79466 18.6418C8.3058 18.8275 7.79727 19.0977 7.47009 19.5339L8.24535 20.1154L7.47009 19.5339C7.31539 19.7402 7.17463 20.0128 7.14337 20.3441C7.1107 20.6905 7.20682 21.0064 7.37201 21.2645L8.21429 20.7254L7.37201 21.2645C7.68292 21.7503 8.19837 21.9881 8.63885 22.1179L13.5636 23.6555L14.004 23.793L14.3944 23.5471L18.8748 20.7262L16.0037 23.3205L15.7048 23.5906L15.6766 23.9925L15.3194 29.0818L15.2443 30.1518H16.317C17.0035 30.1518 17.5755 29.8183 18.0214 29.375L19.8182 27.6447L24.1391 30.8275L24.1884 30.8638L24.2419 30.8939C24.8179 31.2179 25.5812 31.4655 26.3232 31.1174C27.0489 30.7769 27.3663 30.0444 27.5148 29.398ZM39 20C39 22.5743 38.4987 25.0297 37.4958 27.3746C36.4861 29.7352 35.1346 31.7547 33.4447 33.4447C31.7547 35.1346 29.7352 36.4861 27.3746 37.4958C25.0297 38.4987 22.5743 39 20 39C17.4257 39 14.9703 38.4987 12.6254 37.4958C10.2648 36.4861 8.24526 35.1346 6.55532 33.4447C4.86538 31.7547 3.51391 29.7352 2.50425 27.3746C1.5013 25.0297 1 22.5743 1 20C1 17.4257 1.5013 14.9703 2.50425 12.6254C3.51391 10.2648 4.86538 8.24526 6.55532 6.55532C8.24526 4.86538 10.2648 3.51391 12.6254 2.50425C14.9703 1.5013 17.4257 1 20 1C22.5743 1 25.0297 1.5013 27.3746 2.50425C29.7352 3.51391 31.7547 4.86538 33.4447 6.55532C35.1346 8.24526 36.4861 10.2648 37.4958 12.6254C38.4987 14.9703 39 17.4257 39 20Z" stroke="#1F4051" stroke-width="2"/>
</svg>
