<svg width="47" height="47" viewBox="0 0 47 47" fill="none" xmlns="http://www.w3.org/2000/svg">
<path d="M45.2018 21.0837L45.331 21.3889H45.6623H46.5V23.8704H46.4938H46.1367L46.0209 24.2082C45.4648 25.8303 44.3905 27.2456 42.9471 28.2505C41.5034 29.2555 39.7651 29.7979 37.9796 29.7979C36.1941 29.7979 34.4558 29.2555 33.0121 28.2505C31.5687 27.2456 30.4944 25.8303 29.9384 24.2082L29.8225 23.8704H29.4654H29.4231V21.3889H30.5862H30.9143L31.0449 21.0878L37.0826 7.16185L37.3856 6.46296H36.6238H25.3077H24.8077V6.96296V34.8148V35.3148H25.3077H32.4324L33.6381 35.8507L40.5863 44.2478L39.4602 46.5H7.53979L6.41367 44.2478L13.3619 35.8507L14.5676 35.3148H21.6923H22.1923V34.8148V6.96296V6.46296H21.6923H10.4123H9.65056L9.95357 7.16185L15.9913 21.0878L16.1218 21.3889H16.45H17.5769V23.8704H17.5708H17.2133L17.0977 24.2086C16.542 25.8339 15.4572 27.2478 13.9996 28.2391L13.9996 28.2391L13.9945 28.2426C12.5552 29.2477 10.8205 29.7903 9.03846 29.7903C7.25641 29.7903 5.52175 29.2477 4.08241 28.2426L4.08244 28.2426L4.07633 28.2385C2.62184 27.2544 1.54631 25.8404 1.01778 24.2157L0.905448 23.8704H0.542308H0.5V21.3889H1.37385H1.70598L1.83474 21.0827L7.69167 7.15681L7.98348 6.46296H7.23077H4.11538V3.98148H21.6923H22.1923V3.48148V0.5H24.8077V3.48148V3.98148H25.3077H42.8846V6.46296H39.7692H39.0147L39.3088 7.15782L45.2018 21.0837ZM11.8781 26.5864L11.8782 26.5864L11.8823 26.5841C12.7354 26.1155 13.456 25.4485 13.9776 24.6419L14.4764 23.8704H13.5577H4.51923H3.59284L4.10126 24.6448C4.63342 25.4553 5.36711 26.1221 6.23346 26.5856C7.08895 27.0543 8.05399 27.3024 9.03594 27.3074L9.03594 27.3074L9.04191 27.3074C10.0342 27.3005 11.0096 27.053 11.8781 26.5864ZM12.5454 21.3889H13.3065L13.0043 20.6903L9.38888 12.3348L8.93 11.2742L8.47111 12.3348L4.85573 20.6903L4.55347 21.3889H5.31462H12.5454ZM32.0502 37.9706L31.9005 37.7963H31.6708H15.3292H15.0995L14.9498 37.9706L10.4668 43.1928L9.75795 44.0185H10.8462H36.1538H37.242L36.5332 43.1928L32.0502 37.9706ZM38.565 12.4044L38.1062 11.3439L37.6473 12.4044L34.0319 20.76L33.7296 21.4585H34.4908H41.7215H42.4827L42.1804 20.76L38.565 12.4044ZM33.4423 23.8704H32.5332L33.02 24.6381C33.5472 25.4695 34.2786 26.1602 35.1475 26.6502C35.9995 27.1385 36.9736 27.3895 37.9622 27.3771C38.9589 27.3868 39.941 27.1374 40.805 26.654C41.6878 26.1794 42.4186 25.4762 42.9136 24.6208L43.3477 23.8704H42.4808H33.4423Z" stroke="white"/>
</svg>
