<svg width="40" height="40" viewBox="0 0 40 40" fill="none" xmlns="http://www.w3.org/2000/svg">
<path d="M36.1606 9.80913L36.4922 10.3237C41.4971 19.2771 38.8083 30.5636 30.2335 36.1513C27.1724 38.0471 23.6157 39 20.0507 39C16.7668 39 13.4264 38.0597 10.3296 36.393L9.62198 35.9298L9.24787 35.6849L8.81594 35.8005L2.9973 37.3567L4.55231 31.5303L4.66737 31.0992L4.42337 30.7256L3.94003 29.9856C3.93958 29.9849 3.93912 29.9842 3.93866 29.9835C-1.7232 21.2213 1.09206 9.31542 9.8557 3.85245C18.8595 -1.61765 30.485 1.0012 36.1606 9.80913ZM27.7684 32.301H27.8419L27.9146 32.2903C29.8206 32.0088 31.2153 30.9767 32.2859 29.554H32.3517L32.6499 29.1228C33.3954 28.0448 33.3587 26.689 33.0298 25.7377L32.9546 25.5204L32.7922 25.3578C32.5553 25.1207 32.2529 24.9422 32.0228 24.8159C31.8926 24.7444 31.719 24.6554 31.5617 24.5748C31.461 24.5231 31.367 24.4749 31.2952 24.4369L31.285 24.4315L31.2746 24.4263L27.2728 22.4232L27.2524 22.413L27.2317 22.4038C26.9542 22.2803 26.5223 22.1064 26.018 22.1921C25.5119 22.2781 25.1408 22.5872 24.86 22.8683C24.5981 23.1304 24.1511 23.5851 23.7338 24.0399C23.5255 24.2668 23.3179 24.501 23.142 24.7156C23.0188 24.8659 22.884 25.0388 22.7758 25.2088L22.74 25.1898L22.7013 25.1733C21.0825 24.4826 19.662 23.5507 18.2463 22.356C17.1309 21.2096 15.9941 19.8468 15.0672 18.503C15.0764 18.4926 15.086 18.4819 15.096 18.4707L15.1188 18.4452C15.1682 18.39 15.2245 18.327 15.2859 18.2575C16.0266 17.5355 16.4022 16.5932 16.5656 15.834C16.6498 15.4425 16.686 15.0625 16.6754 14.7366C16.6702 14.5753 16.6527 14.4027 16.6124 14.2369C16.5957 14.1681 16.5653 14.0572 16.5061 13.9337C16.4919 13.8821 16.4756 13.8295 16.4594 13.7794C16.4175 13.6498 16.3607 13.4907 16.2962 13.3172C16.1663 12.9679 15.9902 12.5196 15.8022 12.0483C15.6575 11.6855 15.5062 11.3099 15.3609 10.9493C15.1333 10.3844 14.9205 9.85646 14.7717 9.47276C14.6014 8.85057 14.2959 8.3338 13.7682 8.03561C13.3101 7.7767 12.8208 7.77957 12.6006 7.78086C12.5865 7.78094 12.5735 7.78102 12.5616 7.78102H11.3039C10.4588 7.78102 9.70483 8.22283 9.11002 8.81828C7.65847 10.2714 6.81661 12.274 6.81661 14.5326V14.5831L6.82169 14.6333C7.06318 17.0206 7.87851 19.4701 9.50273 21.4012C12.0764 25.2629 15.7137 28.6359 20.1087 30.7169L20.1378 30.7306L20.1677 30.7425C22.7025 31.7488 24.3486 32.1518 25.5253 32.2906C26.3814 32.3916 27.0761 32.3439 27.4816 32.3162C27.6054 32.3077 27.7022 32.301 27.7684 32.301Z" stroke="#1F4051" stroke-width="2"/>
</svg>
